# xmcd CD database file
#
# Track frame offsets:
#	150
#	13305
#	32475
#	43842
#	62910
#	79507
#	102052
#	112090
#	125502
#	142957
#	154365
#	164867
#	174557
#	186210
#	196152
#	210730
#	228232
#
# Disc length: 3213 seconds
#
# Revision: 0
# Processed by: cddbd v1.5PL3 Copyright (c) Steve Scherf et al.
# Submitted via: CDex 1.60beta1
#
DISCID=ef0c8b11
DTITLE=Matthew Davidson - Space Shuffle and Other Futuristic Rags
DYEAR=1900
DGENRE=Jazz
TTITLE0=Space Shuffle
TTITLE1=Rose Leaf Rag
TTITLE2=The Baltimore Todolo
TTITLE3=Cottontain Rag
TTITLE4=Windmill Rag
TTITLE5=Troubadour Rag
TTITLE6=Hot Cinders
TTITLE7=Fingers On Holiday
TTITLE8=Arctic Sunset
TTITLE9=That Futuristic Rag
TTITLE10=Poor Jimmy Green
TTITLE11=Bird-Brain Rag
TTITLE12=The Occident Express
TTITLE13=Pegasus
TTITLE14=Wolverine Blues
TTITLE15=The Alaskan Rag
TTITLE16=Zymurgy Rag-The Last Word In Rags
EXTD=
EXTT0=
EXTT1=
EXTT2=
EXTT3=
EXTT4=
EXTT5=
EXTT6=
EXTT7=
EXTT8=
EXTT9=
EXTT10=
EXTT11=
EXTT12=
EXTT13=
EXTT14=
EXTT15=
EXTT16=
PLAYORDER=
